<?xml version="1.0" standalone="no"?>
<!DOCTYPE svg PUBLIC "-//W3C//DTD SVG 20010904//EN"
 "http://www.w3.org/TR/2001/REC-SVG-20010904/DTD/svg10.dtd">
<svg version="1.0" xmlns="http://www.w3.org/2000/svg"
 width="500.000000pt" height="500.000000pt" viewBox="0 0 500.000000 500.000000"
 preserveAspectRatio="xMidYMid meet">

<g transform="translate(0.000000,500.000000) scale(0.100000,-0.100000)"
fill="#000000" stroke="none">
<path d="M2345 3931 c-184 -22 -334 -65 -502 -146 -208 -99 -368 -226 -512
-405 -228 -283 -343 -607 -343 -960 1 -362 122 -696 356 -975 566 -677 1592
-721 2216 -96 225 225 370 503 426 816 24 135 24 375 0 510 -55 309 -201 590
-421 811 -168 168 -391 308 -608 378 -176 57 -442 86 -612 67z m962 -423 c44
-29 75 -57 78 -71 8 -30 -26 -123 -84 -233 -44 -81 -48 -93 -35 -106 52 -52
81 -373 49 -543 -45 -242 -162 -475 -324 -645 -33 -35 -59 -65 -58 -65 1 -1
17 -8 35 -15 43 -17 117 -91 143 -142 14 -27 21 -60 21 -103 1 -117 -58 -199
-187 -259 -124 -59 -132 -60 -470 -61 -337 0 -362 3 -480 62 -124 63 -178 139
-179 253 0 53 5 75 29 119 31 56 108 126 151 137 23 6 22 9 -36 70 -225 242
-340 527 -340 846 0 158 18 257 57 312 54 77 224 149 448 189 102 18 159 21
380 22 172 0 290 -5 348 -14 48 -7 90 -11 92 -9 2 2 8 64 13 137 5 73 14 137
19 142 6 6 48 9 94 7 l84 -3 -3 -35 c-2 -19 -17 -92 -34 -163 -29 -118 -31
-154 -8 -131 12 12 76 236 85 299 4 28 10 53 12 58 5 9 6 8 100 -55z"/>
</g>
</svg>
